# xmcd
#
# Track frame offsets:
#	150
#	9802
#	23727
#	35560
#	49132
#	58972
#	71400
#	81830
#	95615
#	106122
#	118685
#	128880
#	141365
#	155780
#	167755
#	184435
#	196172
#	207322
#	220070
#	234512
#
# Disc length: 3285 seconds
#
# Revision: 1
# Processed by: cddbd v1.4b42PL1 Copyright (c) Steve Scherf et al.
# Submitted via: audiograbber 1.80.04
#
DISCID=1e0cd314
DTITLE=Freddie Fender - Freddie Fender - The Greatest Hits
DYEAR=1994
DGENRE=Country
TTITLE0=Your cheatin' heart
TTITLE1=These arms of mine
TTITLE2=She's about a mover
TTITLE3=Baby I want to love you
TTITLE4=High school dance
TTITLE5=Talk to me
TTITLE6=Let the good times roll
TTITLE7=In the still of the night
TTITLE8=A man can cry
TTITLE9=Wasted days and wasted nights
TTITLE10=Crazy baby
TTITLE11=Enter my heart
TTITLE12=La bamba
TTITLE13=I'm leaving it all up to you
TTITLE14=Wild side of life
TTITLE15=Sweet summer day
TTITLE16=Mathilda
TTITLE17=Silver wings
TTITLE18=Since I met you baby
TTITLE19=Before the next teardrop falls
EXTD=
EXTT0=
EXTT1=
EXTT2=
EXTT3=
EXTT4=
EXTT5=
EXTT6=
EXTT7=
EXTT8=
EXTT9=
EXTT10=
EXTT11=
EXTT12=
EXTT13=
EXTT14=
EXTT15=
EXTT16=
EXTT17=
EXTT18=
EXTT19=
PLAYORDER=
